<svg viewBox="0 0 19 19" xmlns="http://www.w3.org/2000/svg">
  <path d="M9.625 18.728c-5.17 0-9.375-4.197-9.375-9.36C.25 4.197 4.454 0 9.625 0 14.795 0 19 4.197 19 9.36c0 5.164-4.204 9.368-9.375 9.368zm7.903-8.086c-.271-.088-2.476-.74-4.988-.344 1.047 2.87 1.472 5.215 1.553 5.698a7.95 7.95 0 003.435-5.354zm-4.776 6.094c-.117-.703-.585-3.15-1.706-6.065a.136.136 0 01-.051.015c-4.52 1.575-6.138 4.702-6.285 4.995a7.976 7.976 0 004.915 1.685 7.823 7.823 0 003.127-.63zm-9.074-2.014c.183-.308 2.38-3.94 6.511-5.281.103-.037.212-.066.315-.095a20.839 20.839 0 00-.652-1.355C5.853 9.185 1.972 9.133 1.62 9.126c0 .08-.008.161-.008.242a8.003 8.003 0 002.066 5.354zm-1.89-6.988c.359.008 3.655.022 7.405-.974C7.867 4.402 6.432 2.424 6.227 2.14a8.02 8.02 0 00-4.439 5.595zM7.75 1.597c.22.293 1.677 2.27 2.988 4.68 2.85-1.07 4.05-2.68 4.197-2.886a7.983 7.983 0 00-5.31-2.014c-.645 0-1.274.08-1.875.22zm8.071 2.717c-.168.227-1.508 1.948-4.467 3.157a33.093 33.093 0 01.71 1.567c2.666-.337 5.31.205 5.574.256a7.965 7.965 0 00-1.817-4.98z" fill="rgb(285, 81, 81)" fill-rule="nonzero"/>
</svg>
