<svg viewBox="0 0 19 19" xmlns="http://www.w3.org/2000/svg">
  <path d="M6.25 9.375a3.125 3.125 0 116.25 0 3.125 3.125 0 01-6.25 0m-1.689 0a4.814 4.814 0 109.628 0 4.814 4.814 0 00-9.628 0m8.694-5.005a1.125 1.125 0 101.126-1.124c-.622 0-1.125.503-1.126 1.124M5.588 17.007c-.914-.042-1.411-.194-1.741-.323a2.914 2.914 0 01-1.079-.701 2.893 2.893 0 01-.701-1.078c-.129-.33-.281-.827-.323-1.74-.045-.989-.054-1.286-.054-3.79 0-2.503.01-2.8.054-3.788.042-.914.196-1.41.323-1.741.17-.438.373-.75.701-1.079a2.89 2.89 0 011.079-.701c.33-.129.827-.281 1.74-.323.989-.045 1.286-.054 3.788-.054 2.503 0 2.8.01 3.79.054.913.042 1.41.195 1.74.323.438.17.75.373 1.079.701.328.328.53.64.7 1.079.13.33.282.827.323 1.74.046.99.055 1.286.055 3.79 0 2.503-.01 2.8-.055 3.788-.041.914-.194 1.411-.322 1.741-.17.438-.373.75-.701 1.078-.328.328-.641.53-1.079.701-.33.129-.827.281-1.74.323-.99.045-1.286.054-3.79.054-2.503 0-2.8-.009-3.787-.054M5.51.057C4.512.102 3.83.26 3.234.492c-.616.24-1.139.56-1.66 1.082a4.58 4.58 0 00-1.082 1.66C.26 3.83.102 4.512.057 5.51.01 6.51 0 6.83 0 9.375c0 2.546.01 2.866.057 3.866.045.998.203 1.68.435 2.275.24.617.56 1.14 1.082 1.661a4.61 4.61 0 001.66 1.082c.597.231 1.278.39 2.276.435 1 .045 1.32.057 3.865.057 2.546 0 2.866-.01 3.866-.057.998-.045 1.68-.204 2.275-.435a4.61 4.61 0 001.661-1.082 4.593 4.593 0 001.082-1.66c.231-.597.39-1.278.435-2.276.045-1 .056-1.32.056-3.866 0-2.546-.01-2.865-.056-3.865-.045-.998-.204-1.68-.435-2.276a4.61 4.61 0 00-1.082-1.66 4.588 4.588 0 00-1.66-1.082C14.92.26 14.24.102 13.241.057 12.241.01 11.922 0 9.376 0 6.83 0 6.51.01 5.51.057" fill="rgb(285, 81, 81)" fill-rule="nonzero"/>
</svg>
